<svg xmlns="http://www.w3.org/2000/svg" viewBox="0 0 1080 1080"><defs><style>.cls-1{fill:#07002e;}.cls-2{fill:#008001;}.cls-3{fill:#fff;}</style></defs><g id="Layer_8" data-name="Layer 8"><g id="Layer_4_copy" data-name="Layer 4 copy"><circle class="cls-1" cx="540" cy="539.99" r="320.42"/><path class="cls-2" d="M853.57,411a339.4,339.4,0,0,0-627.09-.3,336.31,336.31,0,0,0-19.28,63.77A338.68,338.68,0,0,0,540.39,878.76,338.13,338.13,0,0,0,852,669.84l3-7.71c1-2.57,2.1-5.11,2.94-7.74l2.68-7.84c.87-2.61,1.88-5.19,2.6-7.86l2.34-7.94c.77-2.66,1.67-5.28,2.28-8l2-8c.62-2.69,1.41-5.35,1.88-8.07l1.61-8.15.8-4.07c.28-1.35.53-2.72.7-4.09.77-5.47,1.67-11,2.31-16.44.47-5.52,1-11,1.41-16.56l.51-16.6A339.28,339.28,0,0,0,853.57,411Zm-12.81,144.5c-.26,4.92-.61,9.83-.9,14.75s-1,9.8-1.51,14.71c-.11,1.23-.29,2.44-.49,3.66l-.58,3.65-1.16,7.31c-.32,2.45-1,4.83-1.44,7.26l-1.52,7.24c-1,4.83-2.48,9.56-3.74,14.34s-3,9.4-4.55,14.1c-.73,2.36-1.72,4.63-2.6,6.94l-2.73,6.89A309.6,309.6,0,1,1,841,540.75Z"/><circle class="cls-2" cx="612.38" cy="336.66" r="12.85"/><path class="cls-3" d="M711.3,509.26a116.41,116.41,0,0,0-2.76-19.39l-1.27-4.76-.65-2.38-.8-2.33-1.63-4.66c-.58-1.54-1.28-3-1.92-4.53A112.17,112.17,0,0,0,680.57,439a131.16,131.16,0,0,0-29.93-23.11,168.12,168.12,0,0,0-33.84-14.67c-2.77-.89-5.9-1.67-8.84-2.49-1.5-.38-3-.69-4.52-1s-3-.7-4.53-.94c-3-.54-6.07-1.09-9.13-1.43-1.53-.18-3-.43-4.58-.54l-4.59-.37c-24.51-1.64-48.83,2.37-71.3,10.22-5.64,1.92-11.15,4.14-16.59,6.5-2.69,1.24-5.38,2.46-8,3.76s-5.29,2.6-7.87,4A266.86,266.86,0,0,0,447,437.58c-19,13.54-36,29.84-48.7,49.31C417.08,473.31,435,459.81,454,448.2a234.47,234.47,0,0,1,60.65-26.05c21.07-5.57,42.84-7.66,63.81-5.07,2.61.35,5.23.68,7.81,1.18s5.15,1,7.7,1.6c1.29.25,2.54.64,3.8,1s2.53.67,3.78,1.05c2.51.84,4.89,1.55,7.52,2.5a143.13,143.13,0,0,1,28.33,13.55c17.66,10.89,31.67,26.19,38.8,44.21.42,1.13.92,2.23,1.3,3.38L678.6,489l.54,1.73.4,1.77.82,3.53a87.59,87.59,0,0,1,1.5,14.51,98.66,98.66,0,0,1-.79,14.82c-.4,2.49-.68,5-1.24,7.45-.26,1.24-.48,2.49-.77,3.73l-.93,3.71c-5.21,19.81-14.88,39.06-26.75,56.85A251.74,251.74,0,0,1,632,622.62a218.58,218.58,0,0,1-22.46,22.26l-1,.85c-.56-7.55-.88-15.25-1-23-.08-4.69-.14-9.41-.11-14.11s.13-9.37.27-14.06c.36-9.37,1-18.74,1.94-28.08s2.12-18.67,3.76-27.9l1.36-7.67L606,529c-11.57-2.5-23.34-4.51-35.33-5.88-6-.7-12-1.17-18.13-1.51s-12.23-.34-18.38-.06a176.23,176.23,0,0,0-36.74,5,202.39,202.39,0,0,0-34.62,12,271.78,271.78,0,0,0-32.66,17.36q-7.95,4.94-15.61,10.76a157.77,157.77,0,0,0-14.88,12.69,121.11,121.11,0,0,0-13.59,15.34,93,93,0,0,0-11,19,73,73,0,0,0-4,46.45,83.64,83.64,0,0,0,8.18,21,106.38,106.38,0,0,0,12.17,17.54,113.49,113.49,0,0,0,14.86,14.48,108.9,108.9,0,0,0,17.39,11.63,111.19,111.19,0,0,0,19.37,8.2l5,1.39,2.5.69,2.51.52,5,1c1.68.3,3.35.49,5,.74a137.46,137.46,0,0,0,20,1.19A170.62,170.62,0,0,0,502.57,737a202,202,0,0,0,36.86-8.85,234.08,234.08,0,0,0,34-14.67q10.28-5.4,20-11.6l.42,1.39c.73,2.37,1.51,4.79,2.39,7.27a68.81,68.81,0,0,0,7.73,15.5,41.93,41.93,0,0,0,3.18,4c.63.67,1.28,1.32,1.93,2s1.46,1.26,2.2,1.86a26.5,26.5,0,0,0,11,5.31,24.15,24.15,0,0,0,11.74-.53,23.82,23.82,0,0,0,8.82-4.94,24.47,24.47,0,0,0,5.54-7.2,22.58,22.58,0,0,0,2.48-8.78c-3.27-.09-6,.06-8.54.09s-4.78,0-6.73-.13a18.44,18.44,0,0,1-4.7-.87,8.19,8.19,0,0,1-2.31-1.24,16.87,16.87,0,0,1-1.43-1.2,13.79,13.79,0,0,1-2.09-2.7,50,50,0,0,1-4.5-10c-.74-2-1.44-4-2.13-6.17l-2-6.47c-.3-.93-.59-1.86-.86-2.79q9.07-7.08,17.56-14.9a253.38,253.38,0,0,0,25.16-26.79,284.79,284.79,0,0,0,21-29.64q4.76-7.74,9-15.79c2.82-5.4,5.5-10.88,7.95-16.5s4.72-11.35,6.65-17.26c1-2.91,1.86-5.93,2.77-8.91.41-1.5.79-3,1.18-4.54s.79-3,1.09-4.58l1-4.63c.3-1.55.53-3.12.79-4.68.57-3.11.85-6.31,1.22-9.47A128.52,128.52,0,0,0,711.3,509.26ZM556.43,679.59c-2.36,1.17-4.79,2.18-7.17,3.28s-4.84,2-7.25,3l-7.31,2.78c-2.46.81-4.91,1.67-7.38,2.45a162.57,162.57,0,0,1-29.73,6.36,130.36,130.36,0,0,1-14.67.82,108.64,108.64,0,0,1-14.13-1.11c-1.14-.19-2.3-.32-3.43-.54l-3.34-.74-1.67-.37-1.61-.48-3.24-.94a69.89,69.89,0,0,1-12-5.32,73.54,73.54,0,0,1-20.37-17c-5.7-6.73-9.91-14.24-11.47-21.28A31.24,31.24,0,0,1,413.59,630c3-6.95,8.29-14.22,15.14-20.83a116.78,116.78,0,0,1,11.06-9.59c4-3.05,8.11-6,12.48-8.75a230.92,230.92,0,0,1,27.59-15c4.8-2.23,9.64-4.41,14.51-6.5s9.75-4.2,14.66-6.15a308.5,308.5,0,0,1,29.85-10.41,195.91,195.91,0,0,1,31.67-6.4,160.7,160.7,0,0,1,25-.85c-.41,6.52-.87,13-1.38,19.51-.7,9.48-1.53,18.95-2.36,28.44L589.2,622c-.92,9.5-1.81,19.12-2.11,29-.1,3.64-.13,7.31-.06,11A243.13,243.13,0,0,1,556.43,679.59Z"/></g></g></svg>