<svg xmlns="http://www.w3.org/2000/svg" viewBox="0 0 1920 1080"><defs><style>.cls-1{fill:#07002e;}.cls-2{fill:#008001;}.cls-3{fill:#fff;}</style></defs><g id="Layer_8" data-name="Layer 8"><g id="Layer_4_copy" data-name="Layer 4 copy"><circle class="cls-1" cx="960" cy="428.1" r="196.84"/><path class="cls-2" d="M1152.63,348.87a208.51,208.51,0,0,0-385.23-.19,206.23,206.23,0,0,0-11.84,39.18A208.05,208.05,0,0,0,960.24,636.2a207.67,207.67,0,0,0,191.44-128.34l1.86-4.73c.61-1.58,1.29-3.14,1.81-4.76l1.64-4.81c.54-1.61,1.16-3.19,1.61-4.83l1.43-4.88c.48-1.63,1-3.24,1.4-4.9l1.23-4.94c.39-1.65.88-3.29,1.16-5l1-5,.49-2.5c.17-.84.33-1.67.43-2.52.48-3.36,1-6.72,1.42-10.1s.63-6.77.87-10.17l.31-10.2A208.26,208.26,0,0,0,1152.63,348.87Zm-7.87,88.77c-.16,3-.38,6-.55,9.06s-.63,6-.93,9c-.07.76-.18,1.51-.3,2.25l-.36,2.24-.71,4.49c-.2,1.51-.59,3-.88,4.46l-.94,4.45c-.64,3-1.52,5.87-2.3,8.81s-1.86,5.77-2.79,8.66c-.45,1.45-1.06,2.85-1.6,4.26l-1.67,4.24a190.26,190.26,0,1,1,13.2-71Z"/><circle class="cls-2" cx="1004.46" cy="303.19" r="7.9"/><path class="cls-3" d="M1065.23,409.22a71.93,71.93,0,0,0-1.69-11.91l-.78-2.93-.4-1.46-.5-1.43-1-2.86c-.35-.95-.78-1.86-1.18-2.79a69,69,0,0,0-13.33-19.8,80.6,80.6,0,0,0-18.38-14.2,103.05,103.05,0,0,0-20.79-9c-1.7-.55-3.62-1-5.43-1.53-.92-.23-1.85-.42-2.78-.63s-1.85-.43-2.78-.58c-1.87-.33-3.73-.67-5.61-.88-.94-.11-1.87-.26-2.81-.33l-2.82-.22a110.79,110.79,0,0,0-43.8,6.27c-3.47,1.18-6.85,2.54-10.19,4-1.66.76-3.31,1.52-4.94,2.31s-3.25,1.6-4.84,2.49a164.71,164.71,0,0,0-18.3,11.46c-11.66,8.32-22.13,18.34-29.91,30.3,11.52-8.34,22.5-16.64,34.22-23.77a144,144,0,0,1,37.26-16,104,104,0,0,1,39.2-3.12c1.61.22,3.21.42,4.8.73s3.16.62,4.73,1c.79.15,1.56.39,2.33.6s1.56.41,2.32.65c1.54.51,3,.95,4.62,1.53a87.45,87.45,0,0,1,17.41,8.33c10.85,6.69,19.46,16.08,23.83,27.15.26.7.57,1.38.8,2.08l.65,2.13.34,1.06.24,1.09.5,2.17a52.79,52.79,0,0,1,.93,8.91,60.64,60.64,0,0,1-.49,9.1c-.25,1.53-.42,3.06-.76,4.58-.16.76-.3,1.53-.47,2.29l-.58,2.28c-3.2,12.17-9.14,24-16.43,34.92a153.29,153.29,0,0,1-11.94,15.69,133.85,133.85,0,0,1-13.79,13.67c-.2.18-.41.34-.62.51-.34-4.63-.54-9.36-.64-14.13,0-2.88-.08-5.78-.06-8.67s.08-5.75.16-8.63c.23-5.76.6-11.51,1.19-17.25s1.31-11.47,2.31-17.14l.84-4.72-5.3-1.14c-7.11-1.54-14.34-2.77-21.7-3.62-3.69-.43-7.4-.72-11.14-.92s-7.52-.21-11.29,0a107.59,107.59,0,0,0-22.57,3.09,123.49,123.49,0,0,0-21.27,7.35,166.58,166.58,0,0,0-20.06,10.66c-3.26,2-6.46,4.24-9.59,6.61a97.32,97.32,0,0,0-9.14,7.8,74,74,0,0,0-8.35,9.42,56.85,56.85,0,0,0-6.74,11.67,44.85,44.85,0,0,0-2.46,28.53,51.21,51.21,0,0,0,5,12.92,64.87,64.87,0,0,0,7.48,10.77,69,69,0,0,0,9.12,8.9,68.57,68.57,0,0,0,22.59,12.18l3.07.86,1.53.42,1.55.32,3.09.63c1,.18,2.06.3,3.09.45a84.64,84.64,0,0,0,12.26.73,102.25,102.25,0,0,0,12-1,123.59,123.59,0,0,0,22.64-5.43,143.44,143.44,0,0,0,20.91-9q6.32-3.31,12.29-7.14l.27.88c.45,1.45.92,2.93,1.47,4.46a41.58,41.58,0,0,0,4.75,9.52,22.57,22.57,0,0,0,1.95,2.46c.38.41.78.81,1.19,1.21a17.22,17.22,0,0,0,1.35,1.14,16.19,16.19,0,0,0,6.77,3.26,14.52,14.52,0,0,0,12.63-3.36,15,15,0,0,0,3.4-4.42,13.82,13.82,0,0,0,1.53-5.4c-2,0-3.69,0-5.25.06s-2.94,0-4.13-.08a11.11,11.11,0,0,1-2.89-.54,4.58,4.58,0,0,1-1.42-.76,10.48,10.48,0,0,1-.88-.73,8.28,8.28,0,0,1-1.28-1.66,31,31,0,0,1-2.77-6.13c-.45-1.21-.88-2.48-1.3-3.79l-1.26-4c-.19-.57-.36-1.15-.53-1.73,3.71-2.9,7.32-5.94,10.79-9.13a155.53,155.53,0,0,0,15.46-16.46,173,173,0,0,0,12.87-18.21q2.92-4.75,5.56-9.7c1.73-3.31,3.37-6.68,4.88-10.13s2.9-7,4.09-10.61c.63-1.78,1.14-3.64,1.7-5.47.25-.92.48-1.86.72-2.79s.48-1.86.67-2.82l.6-2.84c.19-1,.33-1.92.49-2.88.35-1.9.52-3.87.75-5.81A79.74,79.74,0,0,0,1065.23,409.22ZM970.09,513.85c-1.45.72-2.94,1.34-4.4,2s-3,1.23-4.46,1.86l-4.49,1.7c-1.51.5-3,1-4.53,1.5a100.06,100.06,0,0,1-18.27,3.92,80.81,80.81,0,0,1-9,.5,66.73,66.73,0,0,1-8.68-.68c-.7-.12-1.41-.2-2.1-.34l-2-.45-1-.23-1-.29-2-.58a42.44,42.44,0,0,1-7.37-3.27,45.06,45.06,0,0,1-12.51-10.45c-3.5-4.13-6.09-8.74-7.05-13.07a19.21,19.21,0,0,1,1.19-12.58,41.58,41.58,0,0,1,9.29-12.8,72.82,72.82,0,0,1,6.8-5.89c2.43-1.87,5-3.68,7.66-5.37a142.16,142.16,0,0,1,17-9.19c2.94-1.37,5.92-2.71,8.91-4s6-2.58,9-3.78A188,188,0,0,1,959.31,436a119.8,119.8,0,0,1,19.46-3.93,98.29,98.29,0,0,1,15.36-.53q-.37,6-.83,12c-.43,5.82-.94,11.64-1.45,17.47l-1.63,17.48c-.56,5.84-1.11,11.75-1.29,17.81-.06,2.23-.08,4.48,0,6.74A149,149,0,0,1,970.09,513.85Z"/><path class="cls-1" d="M554.88,785.22h21v20.24a34.42,34.42,0,0,1-3.85,3.16,40.15,40.15,0,0,1-5.4,3.23,33.37,33.37,0,0,1-6.4,2.36,29,29,0,0,1-7.34.9,26,26,0,0,1-11.37-2.48,24.83,24.83,0,0,1-8.86-7.22,35.45,35.45,0,0,1-5.86-11.73,55.26,55.26,0,0,1-2.12-15.91A61.24,61.24,0,0,1,527,760.12a39,39,0,0,1,6.36-12.81,26.63,26.63,0,0,1,9.51-7.73,27.82,27.82,0,0,1,12-2.62,41.16,41.16,0,0,1,13.61,2.1,80.39,80.39,0,0,1,12.11,5.41l1.3.71,6.17-13.93-1.08-.61a77.9,77.9,0,0,0-14.09-6,57.7,57.7,0,0,0-17.3-2.38,47.12,47.12,0,0,0-20.21,4.19,42.44,42.44,0,0,0-15,11.75,52.65,52.65,0,0,0-9.3,17.84,76.63,76.63,0,0,0-3.18,22.65A67.37,67.37,0,0,0,511,799.72a49.81,49.81,0,0,0,8.65,16.16,38,38,0,0,0,13.22,10.37,39.22,39.22,0,0,0,16.81,3.61A36.46,36.46,0,0,0,566.43,826a63.94,63.94,0,0,0,10.34-6.5v8.61h14.89V771.63H554.88Z"/><path class="cls-1" d="M665.68,759.07h0a29.84,29.84,0,0,0-10.62-7.9,35.63,35.63,0,0,0-14.76-2.87A32.7,32.7,0,0,0,614.63,760a39.45,39.45,0,0,0-7.21,13,49.92,49.92,0,0,0-2.54,16.09,54,54,0,0,0,2.54,17.17,35.59,35.59,0,0,0,7.31,12.8,31.93,31.93,0,0,0,11.57,8,39.71,39.71,0,0,0,15.16,2.79,69,69,0,0,0,14.93-1.49,57,57,0,0,0,12-4l1-.48-3.77-13.8-1.45.66a61.72,61.72,0,0,1-9.79,3.47,44.53,44.53,0,0,1-11.39,1.33c-6.27,0-11.36-1.87-15.13-5.55-3.52-3.44-5.8-8.2-6.78-14.19h52.43l.11-1.24c.29-3.21.44-6.56.44-10A45.79,45.79,0,0,0,672,770.69,33.53,33.53,0,0,0,665.68,759.07ZM621,782.5c.86-6.46,2.9-11.44,6.06-14.81a16.85,16.85,0,0,1,13-5.37c6.13,0,10.78,1.8,14.22,5.51,3.19,3.44,4.91,8.37,5.12,14.67Z"/><path class="cls-1" d="M728.12,748.3a28.18,28.18,0,0,0-15.74,4.35,37.77,37.77,0,0,0-8.26,7.29V750H688.79v78.08h15.77V777.3a47.9,47.9,0,0,1,4.22-5.59,32.69,32.69,0,0,1,5.29-4.87,25.21,25.21,0,0,1,5.85-3.23,16.64,16.64,0,0,1,6-1.15c4.23,0,7.39,1.42,9.65,4.33s3.48,7.12,3.48,12.29v49h15.76V777.63c0-8.69-2.22-15.81-6.61-21.15S737,748.3,728.12,748.3Z"/><rect class="cls-1" x="774.59" y="750.04" width="15.76" height="78.08"/><path class="cls-1" d="M782.47,718.88A9.84,9.84,0,0,0,772,729.37a10.52,10.52,0,0,0,10.49,10.49A9.86,9.86,0,0,0,793,729.37a10.52,10.52,0,0,0-10.49-10.49Z"/><path class="cls-1" d="M866.55,759.07h0a30,30,0,0,0-10.62-7.9,35.68,35.68,0,0,0-14.77-2.87A32.74,32.74,0,0,0,815.49,760a39.63,39.63,0,0,0-7.21,13,49.92,49.92,0,0,0-2.53,16.09,54,54,0,0,0,2.53,17.17,35.76,35.76,0,0,0,7.32,12.8,31.84,31.84,0,0,0,11.57,8,39.62,39.62,0,0,0,15.15,2.79,69.1,69.1,0,0,0,14.94-1.49,57.08,57.08,0,0,0,12-4l1-.48-3.76-13.8-1.46.66a61.26,61.26,0,0,1-9.78,3.47,44.53,44.53,0,0,1-11.39,1.33c-6.27,0-11.36-1.87-15.14-5.55-3.52-3.44-5.79-8.2-6.77-14.19h52.42l.12-1.24c.29-3.21.44-6.56.44-10a45.8,45.8,0,0,0-2.1-13.89A33.51,33.51,0,0,0,866.55,759.07ZM821.82,782.5c.87-6.46,2.9-11.44,6.06-14.81a16.89,16.89,0,0,1,13-5.37c6.13,0,10.78,1.8,14.22,5.51,3.18,3.44,4.9,8.37,5.12,14.67Z"/><path class="cls-1" d="M998.3,809.06a49,49,0,0,1-9.87,4.45h0a39.6,39.6,0,0,1-11.91,1.6,27.61,27.61,0,0,1-22.2-10.65,38.66,38.66,0,0,1-6.43-12.39,53.22,53.22,0,0,1-2.33-16.18,54.91,54.91,0,0,1,2.33-16.62,36.23,36.23,0,0,1,6.49-12.22,27.35,27.35,0,0,1,9.8-7.53A29.8,29.8,0,0,1,976.52,737a40.86,40.86,0,0,1,10.73,1.25,54.79,54.79,0,0,1,9,3.39l1.36.66,5.13-14.17-1.11-.53a57.94,57.94,0,0,0-11.36-3.94,60.38,60.38,0,0,0-13.57-1.41,47.47,47.47,0,0,0-19.77,4,43.74,43.74,0,0,0-15.17,11.29,50.63,50.63,0,0,0-9.61,17.19,68.31,68.31,0,0,0-3.33,21.74,69.07,69.07,0,0,0,3.33,22.1,49,49,0,0,0,9.47,16.84,42.17,42.17,0,0,0,14.6,10.71,46,46,0,0,0,18.74,3.74,60.47,60.47,0,0,0,16.38-2,62.22,62.22,0,0,0,12.53-5l1-.56-5.17-14.08Z"/><path class="cls-1" d="M1083.11,814.52c-1.36-.84-2-2.87-2-6V750h-14.6v4.66a39.24,39.24,0,0,0-7.32-4.05,31.45,31.45,0,0,0-12.34-2.35,35,35,0,0,0-26.74,11.91,40.18,40.18,0,0,0-7.58,13.12,48.15,48.15,0,0,0-2.69,16.18,47.37,47.37,0,0,0,2.77,16.64,39.43,39.43,0,0,0,7.51,12.68,33.1,33.1,0,0,0,11.18,8.15,33.53,33.53,0,0,0,13.81,2.88,31,31,0,0,0,8.34-1.07,27.7,27.7,0,0,0,12.26-7.09c.89-.89,1.73-1.8,2.51-2.71,2.64,6.54,8.45,9.85,17.33,9.85h1L1090,816h-1.78A9.49,9.49,0,0,1,1083.11,814.52Zm-17.8-7.52a24.56,24.56,0,0,1-7.54,6.09,20.7,20.7,0,0,1-9.8,2.45,20.25,20.25,0,0,1-8.77-1.89,21.37,21.37,0,0,1-7-5.39,25,25,0,0,1-4.67-8.39,33.54,33.54,0,0,1-1.67-10.79,34.76,34.76,0,0,1,1.67-11,25.53,25.53,0,0,1,4.61-8.47,20.32,20.32,0,0,1,7-5.37,21.08,21.08,0,0,1,9-1.9,28.19,28.19,0,0,1,9.47,1.59,34.59,34.59,0,0,1,7.72,3.85Z"/><path class="cls-1" d="M1165.12,758.88h0A32.72,32.72,0,0,0,1141,748.3a28.86,28.86,0,0,0-9.12,1.37,35.34,35.34,0,0,0-7.25,3.32,28,28,0,0,0-5.4,4.27c-.66.68-1.25,1.33-1.76,1.94-2.85-6.08-8.58-9.16-17-9.16h-1l-3.49,12.86h1.78a7.64,7.64,0,0,1,5.26,1.76c1.28,1.13,1.93,3.15,1.93,6V860h15.76V822.56a41.7,41.7,0,0,0,7.56,4.49,30.72,30.72,0,0,0,13.11,2.81,29.64,29.64,0,0,0,13.06-3,34.37,34.37,0,0,0,10.94-8.52,41.56,41.56,0,0,0,7.5-13.11,49.37,49.37,0,0,0,2.76-16.84,47.58,47.58,0,0,0-2.84-16.86A38.44,38.44,0,0,0,1165.12,758.88Zm-7.14,41a25.33,25.33,0,0,1-4.33,8.39,19.76,19.76,0,0,1-6.58,5.36,18.56,18.56,0,0,1-8.38,1.88,21.75,21.75,0,0,1-10.17-2.38,31.9,31.9,0,0,1-7.89-5.8v-36.1a25.83,25.83,0,0,1,7-6,20.26,20.26,0,0,1,18.72-1.15,19.89,19.89,0,0,1,6.78,5.16,25.83,25.83,0,0,1,4.67,8.33,33.89,33.89,0,0,1,1.74,11.22A38,38,0,0,1,1158,799.91Z"/><path class="cls-1" d="M1198.84,718.88a9.84,9.84,0,0,0-10.49,10.49,10.52,10.52,0,0,0,10.49,10.49,9.87,9.87,0,0,0,10.49-10.49,10.52,10.52,0,0,0-10.49-10.49Z"/><rect class="cls-1" x="1190.96" y="750.04" width="15.76" height="78.08"/><path class="cls-1" d="M1268.76,811.8a42.62,42.62,0,0,1-5.9,2.67h0a18.55,18.55,0,0,1-6.34,1.07,12.62,12.62,0,0,1-4.26-.72,8,8,0,0,1-3.29-2.17,11.19,11.19,0,0,1-2.25-4.14,22,22,0,0,1-.87-6.68v-35h20.87v-14h-20.87V729h-12.57l-2.76,23.77H1217v14h13v34c0,9.28,2.23,16.51,6.64,21.48s10.57,7.56,18.19,7.56a33.6,33.6,0,0,0,10.73-1.74,42.59,42.59,0,0,0,8.09-3.53l.94-.57-4.51-13Z"/><path class="cls-1" d="M1350.06,814.52c-1.36-.84-2-2.87-2-6V750h-14.6v4.66a39.24,39.24,0,0,0-7.32-4.05,31.45,31.45,0,0,0-12.34-2.35A35,35,0,0,0,1287,760.21a40.18,40.18,0,0,0-7.58,13.12,48.15,48.15,0,0,0-2.69,16.18,47.37,47.37,0,0,0,2.77,16.64,39.43,39.43,0,0,0,7.51,12.68,33.1,33.1,0,0,0,11.18,8.15,33.53,33.53,0,0,0,13.81,2.88,30.9,30.9,0,0,0,8.34-1.07,27.7,27.7,0,0,0,12.26-7.09c.89-.89,1.73-1.8,2.51-2.71,2.64,6.54,8.45,9.85,17.33,9.85h1L1357,816h-1.78A9.49,9.49,0,0,1,1350.06,814.52Zm-17.8-7.52a24.56,24.56,0,0,1-7.54,6.09,20.7,20.7,0,0,1-9.8,2.45,20.2,20.2,0,0,1-8.76-1.89,21.3,21.3,0,0,1-7-5.39,25,25,0,0,1-4.67-8.39,33.54,33.54,0,0,1-1.67-10.79,34.76,34.76,0,0,1,1.67-11,25.53,25.53,0,0,1,4.61-8.47,20.32,20.32,0,0,1,7-5.37,21.11,21.11,0,0,1,9-1.9,28.19,28.19,0,0,1,9.47,1.59,34.59,34.59,0,0,1,7.72,3.85Z"/><path class="cls-1" d="M1408.1,813.17l-1.4.6a29.16,29.16,0,0,1-4.43,1.45,20.56,20.56,0,0,1-5,.61c-3.49,0-6.11-1.08-8-3.29s-2.93-5.85-2.93-10.71V718.15h-15.76v85a34.3,34.3,0,0,0,1.9,12.08,22.22,22.22,0,0,0,5.33,8.33,21.28,21.28,0,0,0,8,4.79,30.54,30.54,0,0,0,9.79,1.53,40,40,0,0,0,8.78-.91,37.23,37.23,0,0,0,6.7-2.11l1.09-.49Z"/></g></g></svg>